<svg xmlns="http://www.w3.org/2000/svg" viewBox="0 0 64 64" role="img" aria-label="s3mirror favicon">
  <defs>
    <linearGradient id="bucket-stroke" x1="10" y1="12" x2="54" y2="52" gradientUnits="userSpaceOnUse">
      <stop offset="0" stop-color="#4bd8ff"/>
      <stop offset="1" stop-color="#18a8ff"/>
    </linearGradient>
    <linearGradient id="arrow-stroke" x1="20" y1="24" x2="44" y2="40" gradientUnits="userSpaceOnUse">
      <stop offset="0" stop-color="#f5b841"/>
      <stop offset="1" stop-color="#e89a1e"/>
    </linearGradient>
    <radialGradient id="canvas-glow" cx="50%" cy="38%" r="64%">
      <stop offset="0" stop-color="#18a8ff" stop-opacity="0.34"/>
      <stop offset="1" stop-color="#18a8ff" stop-opacity="0"/>
    </radialGradient>
  </defs>

  <rect width="64" height="64" rx="16" fill="#0f1218"/>
  <rect width="64" height="64" rx="16" fill="url(#canvas-glow)"/>
  <rect x="0.75" y="0.75" width="62.5" height="62.5" rx="15.25" fill="none" stroke="#2d3d52" stroke-opacity="0.6"/>

  <g fill="none" stroke="url(#bucket-stroke)" stroke-width="2.4" stroke-linecap="round" stroke-linejoin="round">
    <ellipse cx="18" cy="20" rx="7.5" ry="2.6"/>
    <path d="M10.5 20 L13 42 L23 42 L25.5 20"/>
    <ellipse cx="46" cy="20" rx="7.5" ry="2.6"/>
    <path d="M38.5 20 L41 42 L51 42 L53.5 20"/>
  </g>

  <g fill="none" stroke="url(#arrow-stroke)" stroke-width="2.6" stroke-linecap="round" stroke-linejoin="round">
    <path d="M26 31 C 30 26, 34 26, 38 31"/>
    <path d="M38 31 L35.5 29.2 M38 31 L35.5 32.8"/>
    <path d="M38 33 C 34 38, 30 38, 26 33"/>
    <path d="M26 33 L28.5 34.8 M26 33 L28.5 31.2"/>
  </g>
</svg>
