<svg xmlns="http://www.w3.org/2000/svg" viewBox="0 0 320 80" role="img" aria-label="s3mirror">
  <defs>
    <linearGradient id="mark-bucket" x1="6" y1="10" x2="60" y2="68" gradientUnits="userSpaceOnUse">
      <stop offset="0" stop-color="#4bd8ff"/>
      <stop offset="1" stop-color="#18a8ff"/>
    </linearGradient>
    <linearGradient id="mark-arrow" x1="22" y1="32" x2="46" y2="48" gradientUnits="userSpaceOnUse">
      <stop offset="0" stop-color="#f5b841"/>
      <stop offset="1" stop-color="#e89a1e"/>
    </linearGradient>
    <linearGradient id="wordmark" x1="76" y1="22" x2="76" y2="58" gradientUnits="userSpaceOnUse">
      <stop offset="0" stop-color="#e6edf6"/>
      <stop offset="1" stop-color="#a9b8cc"/>
    </linearGradient>
  </defs>

  <rect width="320" height="80" fill="none"/>

  <g fill="none" stroke="url(#mark-bucket)" stroke-width="2.6" stroke-linecap="round" stroke-linejoin="round">
    <ellipse cx="20" cy="22" rx="8" ry="2.8"/>
    <path d="M12 22 L14.5 46 L25.5 46 L28 22"/>
    <ellipse cx="46" cy="22" rx="8" ry="2.8"/>
    <path d="M38 22 L40.5 46 L51.5 46 L54 22"/>
  </g>

  <g fill="none" stroke="url(#mark-arrow)" stroke-width="2.8" stroke-linecap="round" stroke-linejoin="round">
    <path d="M28 34 C 32 29, 36 29, 40 34"/>
    <path d="M40 34 L37.4 32.1 M40 34 L37.4 35.9"/>
    <path d="M40 36 C 36 41, 32 41, 28 36"/>
    <path d="M28 36 L30.6 37.9 M28 36 L30.6 34.1"/>
  </g>

  <text x="76" y="50" font-family="ui-sans-serif, system-ui, -apple-system, 'Segoe UI', Roboto, sans-serif"
        font-size="28" font-weight="600" letter-spacing="0.5" fill="url(#wordmark)">s3mirror</text>
</svg>
